<?xml version="1.0" standalone="no"?><!DOCTYPE svg PUBLIC "-//W3C//DTD SVG 1.1//EN" "http://www.w3.org/Graphics/SVG/1.1/DTD/svg11.dtd"><svg t="1561894359876" class="icon" viewBox="0 0 1024 1024" version="1.1" xmlns="http://www.w3.org/2000/svg" p-id="2323" xmlns:xlink="http://www.w3.org/1999/xlink" width="512" height="512"><defs><style type="text/css"></style></defs><path d="M699.1872 740.352h-14.9504c-60.2112 0-108.8512-42.3936-108.8512-94.5152V604.16H453.3248v41.8816c0 52.1216-48.5376 94.4128-108.6464 94.5152h-19.7632c-84.0704 0-152.2688 58.88-152.3712 131.6864v28.16h679.0144v-28.16c0-72.9088-68.1984-131.8912-152.2688-131.8912z" fill="#FCFEFF" p-id="2324"></path><path d="M611.9424 900.1984l-26.0096-76.288a27.9552 27.9552 0 0 0 28.2624-20.48l15.36-75.776a100.4544 100.4544 0 0 1-48.8448-51.2h-133.12a100.2496 100.2496 0 0 1-53.0432 53.248l15.0528 73.728a28.0576 28.0576 0 0 0 28.8768 20.48l-26.4192 76.288z" fill="#D8E3F0" p-id="2325"></path><path d="M851.5584 846.9504a288.9728 288.9728 0 0 1-101.2736 18.432H273.7152a288.4608 288.4608 0 0 1-101.1712-18.432v52.6336h679.0144z" fill="#D8E3F0" p-id="2326"></path><path d="M451.4816 764.1088h121.1392l-12.8 62.7712h-95.6416l-12.6976-62.7712z" fill="#69BAF9" p-id="2327"></path><path d="M633.9584 654.5408L512 751.8208l81.92 71.68L668.4672 706.56l-34.5088-51.2z m-243.8144 0l121.856 97.28-81.92 71.68L355.5328 706.56z" fill="#FCFEFF" p-id="2328"></path><path d="M559.8208 900.1984l-25.2928-73.3184h-45.056l-25.2928 73.3184z" fill="#69BAF9" p-id="2329"></path><path d="M715.264 337.2032v179.3024c-1.1264 96.256-92.16 174.08-203.264 172.544-111.104 1.024-202.0352-76.288-203.1616-172.544V337.2032" fill="#FFDEAD" p-id="2330"></path><path d="M654.4384 337.2032v179.3024c-0.7168 86.1184-74.3424 158.6176-173.1584 170.2912a230.912 230.912 0 0 0 30.72 2.2528c111.104 1.024 202.1376-76.288 203.264-172.544V337.2032z" fill="#FFC670" p-id="2331"></path><path d="M222.9248 279.552h578.3552V348.16H222.9248z" fill="#F6716F" p-id="2332"></path><path d="M761.5488 279.552h-78.1312a36.5568 36.5568 0 0 1 36.9664 36.6592A37.376 37.376 0 0 1 683.4176 348.16h78.1312A36.5568 36.5568 0 0 0 798.72 311.6032a37.376 37.376 0 0 0-37.1712-32.0512z" fill="#F0504D" p-id="2333"></path><path d="M262.4512 279.552h78.1312a36.4544 36.4544 0 0 0-36.864 36.6592 37.376 37.376 0 0 0 36.864 31.9488h-78.1312A36.4544 36.4544 0 0 1 225.28 311.6032a37.376 37.376 0 0 1 37.1712-32.0512z" fill="#F6A2A2" p-id="2334"></path><path d="M606.208 124.416l-59.8016 18.1248a120.7296 120.7296 0 0 1-68.7104 0l-59.904-18.1248c-35.5328-10.24-74.3424 5.632-86.7328 36.4544a53.0432 53.0432 0 0 0-3.7888 19.456v99.2256H696.32v-99.2256c0-32.6656-30.72-59.0848-68.096-59.1872a79.2576 79.2576 0 0 0-22.4256 3.2768z" fill="#F6716F" p-id="2335"></path><path d="M606.208 124.416l-11.5712 3.3792a58.7776 58.7776 0 0 1 36.864 52.5312v99.2256H696.32v-99.2256c0-32.6656-30.72-59.0848-68.096-59.1872a79.2576 79.2576 0 0 0-22.4256 3.2768z" fill="#F0504D" p-id="2336"></path><path d="M417.792 124.416l11.6736 3.3792a58.9824 58.9824 0 0 0-36.9664 52.5312v99.2256H327.68v-99.2256c0-32.6656 30.72-59.0848 68.096-59.1872a78.1312 78.1312 0 0 1 22.016 3.2768z" fill="#F6A2A2" p-id="2337"></path><path d="M327.68 221.5936h368.64v57.9584H327.68z" fill="#FCFEFF" p-id="2338"></path><path d="M308.8384 507.4944V397.7216h-40.0384a32.8704 32.8704 0 0 0-35.84 28.672v20.48c1.9456 34.4064 35.6352 61.6448 75.8784 60.6208z m406.4256 0V397.7216h40.2432a32.9728 32.9728 0 0 1 35.84 28.672v20.48c-2.048 34.4064-35.84 61.7472-76.0832 60.6208z" fill="#FFC670" p-id="2339"></path><path d="M919.552 884.224H870.4v-11.9808c0-81.92-76.5952-147.968-170.8032-147.968h-20.48l6.4512-10.24a14.336 14.336 0 0 0 0-16.0768l-26.624-39.936A178.8928 178.8928 0 0 0 733.696 522.24c42.9056-6.144 74.752-37.7856 75.8784-75.4688v-20.48c-0.8192-25.3952-25.088-45.3632-54.272-44.6464h-21.6064v-17.408h28.0576c32.0512-1.536 56.6272-25.3952 54.784-53.1456-1.6384-25.6-25.1904-46.08-54.784-47.5136h-46.4896v-83.2512c0-40.96-38.8096-75.1616-86.6304-75.1616a97.0752 97.0752 0 0 0-28.16 4.096l-60.0064 17.2032a99.7376 99.7376 0 0 1-56.9344 0l-59.8016-17.2032c-45.2608-13.5168-94.5152 7.2704-110.1824 46.4896a65.536 65.536 0 0 0-4.7104 24.576v83.2512h-46.3872c-32.0512 1.536-56.6272 25.3952-54.784 53.1456 1.6384 25.6 25.2928 46.08 54.784 47.5136h27.9552v17.5104h-21.6064c-29.2864-0.7168-53.5552 19.2512-54.3744 44.6464v20.48c1.1264 37.6832 32.9728 69.3248 75.9808 75.4688a178.2784 178.2784 0 0 0 75.3664 135.8848l-26.624 40.0384a14.2336 14.2336 0 0 0 0 15.9744l6.656 10.24h-20.48c-94.3104 0-170.8032 66.1504-170.9056 147.8656v12.0832h-49.8688a16.1792 16.1792 0 1 0 0 31.9488H919.552a16.1792 16.1792 0 1 0 0-31.9488z m-629.1456-395.264a47.616 47.616 0 0 1-39.0144-42.2912v-20.48a15.5648 15.5648 0 0 1 17.408-12.6976h21.6064zM647.2704 706.56l-57.1392 90.5216-51.2-44.4416 90.9312-72.4992z m108.032-292.864a15.6672 15.6672 0 0 1 17.408 12.6976v20.48a47.7184 47.7184 0 0 1-39.0144 42.2912V413.696z m-409.6-233.3696a40.96 40.96 0 0 1 20.48-35.1232 56.2176 56.2176 0 0 1 45.056-5.7344L471.04 157.2864a145.3056 145.3056 0 0 0 80.9984 0l59.5968-17.8176a56.2176 56.2176 0 0 1 45.056 5.7344 40.96 40.96 0 0 1 21.2992 35.1232v25.2928H345.8048z m0 57.2416h332.5952v26.0096H345.8048z m-83.5584 94.6176a19.2512 19.2512 0 0 1-19.1488-19.968 20.48 20.48 0 0 1 19.1488-16.6912h498.8928a19.3536 19.3536 0 0 1 19.1488 20.48 20.48 20.48 0 0 1-19.1488 16.5888z m65.024 184.32V364.2368H696.32v152.2688c0 88.3712-81.92 160.0512-184.32 160.0512s-184.32-71.68-184.32-160.0512zM512 705.1264a300.6464 300.6464 0 0 0 34.6112-2.2528L512 730.0096l-34.5088-27.136a298.8032 298.8032 0 0 0 34.5088 2.2528z m-26.624 48.0256l-51.2 44.4416L376.832 706.56l18.432-26.4192zM450.56 885.0432H190.976v-11.9808c0-64.1024 60.0064-115.9168 133.9392-115.9168h19.5584a155.0336 155.0336 0 0 0 20.48-1.6384l48.2304 75.3664a18.6368 18.6368 0 0 0 13.5168 8.3968H430.08a20.48 20.48 0 0 0 12.9024-4.8128l4.096-3.3792a18.1248 18.1248 0 0 0 17.5104 11.6736z m38.6048 0l14.1312-40.96h17.408l14.2336 40.96z m55.3984-73.3184h-64.7168l-1.4336-7.2704L512 774.5536l33.792 29.184z m288.6656 73.3184H573.44l-14.2336-40.96a17.92 17.92 0 0 0 17.5104-11.6736l4.096 3.3792a19.8656 19.8656 0 0 0 12.9024 4.8128h2.7648a18.5344 18.5344 0 0 0 13.5168-8.2944l49.664-78.0288a144.1792 144.1792 0 0 0 24.7808 2.4576h14.9504c73.9328 0 133.8368 51.8144 133.9392 115.9168z" fill="#1B1464" p-id="2340"></path><path d="M439.6032 550.7072a15.36 15.36 0 0 0-9.5232 21.0944c19.6608 39.2192 72.2944 57.2416 117.6576 40.2432A84.5824 84.5824 0 0 0 593.92 571.904a15.2576 15.2576 0 0 0-9.4208-21.2992 19.8656 19.8656 0 0 0-24.576 8.192A55.3984 55.3984 0 0 1 491.52 582.4512a49.2544 49.2544 0 0 1-27.4432-23.6544 19.6608 19.6608 0 0 0-24.4736-8.0896zM430.08 456.2944A17.408 17.408 0 0 0 448.512 440.32v-18.432a18.6368 18.6368 0 0 0-36.9664 0V440.32A17.408 17.408 0 0 0 430.08 456.2944z m163.84 0A17.408 17.408 0 0 0 612.5568 440.32v-18.432a18.6368 18.6368 0 0 0-36.9664 0V440.32A17.408 17.408 0 0 0 593.92 456.2944z" fill="#3D3D63" p-id="2341"></path></svg>