<?xml version="1.0" standalone="no"?><!DOCTYPE svg PUBLIC "-//W3C//DTD SVG 1.1//EN" "http://www.w3.org/Graphics/SVG/1.1/DTD/svg11.dtd"><svg t="1561894366571" class="icon" viewBox="0 0 1024 1024" version="1.1" xmlns="http://www.w3.org/2000/svg" p-id="2458" xmlns:xlink="http://www.w3.org/1999/xlink" width="512" height="512"><defs><style type="text/css"></style></defs><path d="M686.08 743.6288h-2.2528c-58.2656 0-105.5744-40.96-105.5744-91.5456v-40.96H460.0832v40.96c0 50.5856-47.3088 91.5456-105.6768 91.5456H348.16c-81.92 0-147.7632 57.344-147.7632 128.1024v27.2384h633.7536v-27.2384c0-70.7584-66.1504-128.1024-148.0704-128.1024z" fill="#FFE3BA" p-id="2459"></path><path d="M425.7792 719.4624a221.696 221.696 0 0 0 184.32-1.2288 85.7088 85.7088 0 0 1-32.768-66.1504v-40.96H460.0832v40.96a85.7088 85.7088 0 0 1-34.304 67.3792z m408.3712 126.1568a283.8528 283.8528 0 0 1-101.1712 18.432H301.056a283.8528 283.8528 0 0 1-101.1712-18.432v52.6336h634.2656z" fill="#FFC670" p-id="2460"></path><path d="M517.0176 130.4576c152.2688 0 275.7632 107.008 275.7632 239.0016v249.6512a38.912 38.912 0 0 1-40.96 35.84H282.624a38.912 38.912 0 0 1-40.96-35.84V369.664c0-131.9936 122.88-239.104 275.5584-239.2064z" fill="#FFC670" p-id="2461"></path><path d="M517.0176 547.0208a642.7648 642.7648 0 0 1-275.7632-59.4944v131.584a38.912 38.912 0 0 0 40.96 35.84h469.1968a38.912 38.912 0 0 0 40.96-35.84V487.5264a642.7648 642.7648 0 0 1-275.3536 59.4944z" fill="#FFB038" p-id="2462"></path><path d="M714.1376 314.88v208.1792c0 94.3104-88.2688 170.8032-197.12 170.8032s-197.12-76.4928-197.12-170.8032V382.6688c71.68 27.5456 155.4432 0 187.2896-62.464a108.8512 108.8512 0 0 0 12.1856-49.664 147.3536 147.3536 0 0 0 122.88 61.44 157.9008 157.9008 0 0 0 71.68-16.7936z" fill="#FFF6E6" p-id="2463"></path><path d="M653.5168 330.9568v192.1024c0 83.968-70.5536 155.4432-166.2976 168.5504a230.912 230.912 0 0 0 30.72 2.2528c108.6464 0 196.608-76.6976 196.608-170.8032V314.88a157.0816 157.0816 0 0 1-60.6208 16.0768z" fill="#FFE3BA" p-id="2464"></path><path d="M684.1344 733.5936h-19.3536c0 68.9152-64.512 108.8512-144.0768 108.8512H512c-79.4624 0-143.36-39.936-143.36-108.8512h-17.408a167.424 167.424 0 0 0-63.2832 12.288v153.6h461.2096v-153.6a167.936 167.936 0 0 0-65.024-12.0832z" fill="#F6716F" p-id="2465"></path><path d="M747.52 845.6192a284.3648 284.3648 0 0 1-101.1712 19.0464H387.6864A283.9552 283.9552 0 0 1 286.72 845.6192v52.6336h461.5168v-52.6336z" fill="#F0504D" p-id="2466"></path><path d="M605.696 130.048a31.3344 31.3344 0 0 0 0 48.8448 41.8816 41.8816 0 0 0 6.5536 4.608l74.752 42.5984 29.7984-25.6-49.152-65.024a44.032 44.032 0 0 0-55.5008-10.24 39.1168 39.1168 0 0 0-6.144 4.4032zM797.184 296.96a32.768 32.768 0 0 0-6.2464-53.4528L716.8 200.8064l-29.5936 25.6 49.152 64.8192a43.52 43.52 0 0 0 55.0912 9.4208 34.2016 34.2016 0 0 0 5.7344-3.6864z" fill="#F6716F" p-id="2467"></path><path d="M646.3488 217.9072L706.56 165.9904l49.8688 43.2128L696.32 261.2224z" fill="#FCFEFF" p-id="2468"></path><path d="M912.4864 882.8928h-59.8016v-11.1616c0-52.6336-33.3824-100.9664-86.6304-126.1568a16.2816 16.2816 0 0 0-10.24-14.4384 190.0544 190.0544 0 0 0-71.68-13.6192h-19.3536a19.8656 19.8656 0 0 0-13.1072 4.8128 86.1184 86.1184 0 0 1-42.2912-30.72 238.8992 238.8992 0 0 0 38.1952-20.48h103.3216c32.9728 0 59.6992-23.2448 59.8016-51.8144V369.664a224.6656 224.6656 0 0 0-7.3728-57.0368c2.2528-1.4336 4.4032-2.8672 6.4512-4.4032a46.1824 46.1824 0 0 0 0-71.68 59.8016 59.8016 0 0 0-9.216-6.5536l-27.5456-15.9744a14.5408 14.5408 0 0 0-4.4032-15.9744l-48.4352-43.4176a20.48 20.48 0 0 0-18.432-3.7888l-18.5344-24.064a64 64 0 0 0-80.6912-14.7456 62.2592 62.2592 0 0 0-9.4208 6.656 30.72 30.72 0 0 0-3.4816 3.7888c-156.9792-35.1232-317.44 46.6944-357.5808 182.784a222.3104 222.3104 0 0 0-9.3184 64.4096v249.4464c0 28.5696 26.8288 51.8144 59.904 51.8144h103.2192a221.5936 221.5936 0 0 0 41.7792 21.8112 85.9136 85.9136 0 0 1-44.9536 30.72 19.1488 19.1488 0 0 0-13.4144-5.8368h-18.5344a187.6992 187.6992 0 0 0-71.0656 13.824 15.9744 15.9744 0 0 0-10.24 14.5408V747.52c-52.9408 23.1424-86.4256 70.0416-86.6304 121.344v13.824h-61.2352a16.1792 16.1792 0 1 0 0 32.0512h790.9376a16.1792 16.1792 0 1 0 0-32.0512z m-644.5056 0h-51.712v-13.7216a102.4 102.4 0 0 1 51.712-86.1184z m512.8192-626.0736a17.7152 17.7152 0 0 1 9.6256 13.6192 20.48 20.48 0 0 1-20.48 20.48h-2.9696a23.3472 23.3472 0 0 1-15.9744-8.2944l-20.48-27.8528 18.432-16.0768zM706.56 188.7232l23.8592 20.48L696.32 238.6944l-23.8592-20.48z m-69.632-52.8384a23.3472 23.3472 0 0 1 15.872 8.3968l20.48 27.8528L655.36 188.1088l-33.0752-18.0224a18.2272 18.2272 0 0 1-9.6256-12.9024 20.48 20.48 0 0 1 19.2512-21.1968h5.0176zM282.624 638.976a21.6064 21.6064 0 0 1-22.9376-19.8656V369.664c0.6144-122.88 115.4048-222.5152 257.3312-223.1296a297.5744 297.5744 0 0 1 58.88 6.0416v7.0656a49.8688 49.8688 0 0 0 26.112 37.1712l27.136 15.9744a14.4384 14.4384 0 0 0 4.096 16.9984l49.9712 42.9056a21.1968 21.1968 0 0 0 18.5344 3.6864l18.432 23.6544a59.5968 59.5968 0 0 0 42.9056 22.528 24.9856 24.9856 0 0 0 5.5296 0 193.2288 193.2288 0 0 1 5.7344 47.104v249.4464a21.6064 21.6064 0 0 1-22.9376 19.8656H686.08a171.52 171.52 0 0 0 46.6944-115.9168V322.7648a15.7696 15.7696 0 0 0-9.4208-13.7216 20.48 20.48 0 0 0-18.432 0c-58.9824 29.5936-134.4512 12.1856-168.6528-38.912l-0.6144-0.8192a20.48 20.48 0 0 0-25.1904-6.0416 15.5648 15.5648 0 0 0-9.3184 14.336c0 59.1872-55.3984 107.1104-123.5968 107.1104a138.8544 138.8544 0 0 1-49.8688-9.1136 19.5584 19.5584 0 0 0-24.3712 7.9872 13.5168 13.5168 0 0 0-1.6384 6.5536V522.24A171.52 171.52 0 0 0 348.16 638.464zM337.92 523.0592V413.3888a190.464 190.464 0 0 0 39.0144 4.1984c71.68 0 134.4512-40.96 154.4192-100.2496a174.08 174.08 0 0 0 110.7968 38.7072A178.3808 178.3808 0 0 0 695.296 348.16v176.128c0 85.504-79.9744 154.8288-178.688 154.8288S337.92 609.792 337.92 524.288z m124.8256 180.736a243.3024 243.3024 0 0 0 53.8624 6.0416 239.8208 239.8208 0 0 0 58.0608-7.168 121.5488 121.5488 0 0 0 69.4272 51.2c-11.9808 49.7664-67.7888 72.3968-122.88 72.3968H512c-55.3984 0-110.8992-22.2208-122.88-71.68a122.88 122.88 0 0 0 73.5232-51.2z m266.24 179.0976H303.8208V756.4288a147.8656 147.8656 0 0 1 46.8992-6.8608c9.1136 64 72.8064 108.8512 161.4848 108.8512h8.4992c88.6784 0 152.9856-44.8512 162.5088-108.8512h1.536a147.2512 147.2512 0 0 1 44.8512 7.0656z m86.6304 0h-49.5616v-99.2256a107.6224 107.6224 0 0 1 49.664 88.064z" fill="#1B1464" p-id="2469"></path><path d="M599.04 579.3792a15.36 15.36 0 0 0-9.5232-21.1968 19.7632 19.7632 0 0 0-24.4736 8.192 55.5008 55.5008 0 0 1-68.7104 23.7568 48.8448 48.8448 0 0 1-27.3408-23.7568 19.7632 19.7632 0 0 0-24.4736-8.192 15.36 15.36 0 0 0-9.5232 21.1968c19.8656 39.2192 72.8064 57.1392 118.0672 39.8336a84.48 84.48 0 0 0 45.9776-39.8336zM453.4272 455.7824V437.248a18.6368 18.6368 0 0 0-36.864 0v18.5344a18.6368 18.6368 0 0 0 36.864 0z m145.6128 15.9744a17.3056 17.3056 0 0 0 18.432-15.9744V437.248a18.6368 18.6368 0 0 0-36.9664 0v18.5344a17.3056 17.3056 0 0 0 18.5344 15.9744z" fill="#3D3D63" p-id="2470"></path></svg>